<svg width="759" height="94" viewBox="0 0 759 94" fill="none" xmlns="http://www.w3.org/2000/svg">
<path d="M40.9432 24.2614C40.6705 21.5114 39.5 19.375 37.4318 17.8523C35.3636 16.3295 32.5568 15.5682 29.0114 15.5682C26.6023 15.5682 24.5682 15.9091 22.9091 16.5909C21.25 17.25 19.9773 18.1705 19.0909 19.3523C18.2273 20.5341 17.7955 21.875 17.7955 23.375C17.75 24.625 18.0114 25.7159 18.5795 26.6477C19.1705 27.5795 19.9773 28.3864 21 29.0682C22.0227 29.7273 23.2045 30.3068 24.5455 30.8068C25.8864 31.2841 27.3182 31.6932 28.8409 32.0341L35.1136 33.5341C38.1591 34.2159 40.9545 35.125 43.5 36.2614C46.0455 37.3977 48.25 38.7955 50.1136 40.4545C51.9773 42.1136 53.4205 44.0682 54.4432 46.3182C55.4886 48.5682 56.0227 51.1477 56.0455 54.0568C56.0227 58.3295 54.9318 62.0341 52.7727 65.1705C50.6364 68.2841 47.5455 70.7045 43.5 72.4318C39.4773 74.1364 34.625 74.9886 28.9432 74.9886C23.3068 74.9886 18.3977 74.125 14.2159 72.3977C10.0568 70.6705 6.80682 68.1136 4.46591 64.7273C2.14773 61.3182 0.931818 57.1023 0.818182 52.0795H15.1023C15.2614 54.4205 15.9318 56.375 17.1136 57.9432C18.3182 59.4886 19.9205 60.6591 21.9205 61.4545C23.9432 62.2273 26.2273 62.6136 28.7727 62.6136C31.2727 62.6136 33.4432 62.25 35.2841 61.5227C37.1477 60.7955 38.5909 59.7841 39.6136 58.4886C40.6364 57.1932 41.1477 55.7045 41.1477 54.0227C41.1477 52.4545 40.6818 51.1364 39.75 50.0682C38.8409 49 37.5 48.0909 35.7273 47.3409C33.9773 46.5909 31.8295 45.9091 29.2841 45.2955L21.6818 43.3864C15.7955 41.9545 11.1477 39.7159 7.73864 36.6705C4.32955 33.625 2.63636 29.5227 2.65909 24.3636C2.63636 20.1364 3.76136 16.4432 6.03409 13.2841C8.32955 10.125 11.4773 7.65909 15.4773 5.88636C19.4773 4.11363 24.0227 3.22727 29.1136 3.22727C34.2955 3.22727 38.8182 4.11363 42.6818 5.88636C46.5682 7.65909 49.5909 10.125 51.75 13.2841C53.9091 16.4432 55.0227 20.1023 55.0909 24.2614H40.9432ZM89.5653 75.0227C84.179 75.0227 79.5426 73.9318 75.6562 71.75C71.7926 69.5455 68.8153 66.4318 66.7244 62.4091C64.6335 58.3636 63.5881 53.5795 63.5881 48.0568C63.5881 42.6705 64.6335 37.9432 66.7244 33.875C68.8153 29.8068 71.7585 26.6364 75.554 24.3636C79.3722 22.0909 83.8494 20.9545 88.9858 20.9545C92.4403 20.9545 95.6563 21.5114 98.6335 22.625C101.634 23.7159 104.247 25.3636 106.474 27.5682C108.724 29.7727 110.474 32.5455 111.724 35.8864C112.974 39.2045 113.599 43.0909 113.599 47.5455V51.5341H69.3835V42.5341H99.929C99.929 40.4432 99.4744 38.5909 98.5653 36.9773C97.6563 35.3636 96.3949 34.1023 94.7812 33.1932C93.1903 32.2614 91.3381 31.7955 89.2244 31.7955C87.0199 31.7955 85.0653 32.3068 83.3608 33.3295C81.679 34.3295 80.3608 35.6818 79.4062 37.3864C78.4517 39.0682 77.9631 40.9432 77.9403 43.0114V51.5682C77.9403 54.1591 78.4176 56.3977 79.3722 58.2841C80.3494 60.1705 81.7244 61.625 83.4972 62.6477C85.2699 63.6705 87.3722 64.1818 89.804 64.1818C91.4176 64.1818 92.8949 63.9545 94.2358 63.5C95.5767 63.0455 96.7244 62.3636 97.679 61.4545C98.6335 60.5455 99.3608 59.4318 99.8608 58.1136L113.293 59C112.611 62.2273 111.213 65.0455 109.099 67.4545C107.009 69.8409 104.304 71.7045 100.986 73.0455C97.6903 74.3636 93.8835 75.0227 89.5653 75.0227ZM123.077 21.6364H137.599V76.5909C137.599 80.6364 136.804 83.9091 135.213 86.4091C133.622 88.9091 131.338 90.7386 128.361 91.8977C125.406 93.0568 121.872 93.6364 117.759 93.6364C117.259 93.6364 116.781 93.625 116.327 93.6023C115.849 93.6023 115.349 93.5909 114.827 93.5682V82.2159C115.213 82.2386 115.554 82.25 115.849 82.25C116.122 82.2727 116.418 82.2841 116.736 82.2841C119.077 82.2841 120.713 81.7841 121.645 80.7841C122.599 79.8068 123.077 78.3295 123.077 76.3523V21.6364ZM130.304 14.8864C128.168 14.8864 126.327 14.1705 124.781 12.7386C123.236 11.2841 122.463 9.54545 122.463 7.52272C122.463 5.52272 123.236 3.80682 124.781 2.375C126.327 0.920452 128.168 0.193178 130.304 0.193178C132.486 0.193178 134.338 0.920452 135.861 2.375C137.406 3.80682 138.179 5.52272 138.179 7.52272C138.179 9.54545 137.406 11.2841 135.861 12.7386C134.338 14.1705 132.486 14.8864 130.304 14.8864ZM164.165 74.9886C160.824 74.9886 157.847 74.4091 155.233 73.25C152.619 72.0682 150.551 70.3295 149.028 68.0341C147.528 65.7159 146.778 62.8295 146.778 59.375C146.778 56.4659 147.313 54.0227 148.381 52.0455C149.449 50.0682 150.903 48.4773 152.744 47.2727C154.585 46.0682 156.676 45.1591 159.017 44.5455C161.381 43.9318 163.858 43.5 166.449 43.25C169.494 42.9318 171.949 42.6364 173.812 42.3636C175.676 42.0682 177.028 41.6364 177.869 41.0682C178.71 40.5 179.131 39.6591 179.131 38.5455V38.3409C179.131 36.1818 178.449 34.5114 177.085 33.3295C175.744 32.1477 173.835 31.5568 171.358 31.5568C168.744 31.5568 166.665 32.1364 165.119 33.2955C163.574 34.4318 162.551 35.8636 162.051 37.5909L148.619 36.5C149.301 33.3182 150.642 30.5682 152.642 28.25C154.642 25.9091 157.222 24.1136 160.381 22.8636C163.563 21.5909 167.244 20.9545 171.426 20.9545C174.335 20.9545 177.119 21.2955 179.778 21.9773C182.46 22.6591 184.835 23.7159 186.903 25.1477C188.994 26.5795 190.642 28.4205 191.847 30.6705C193.051 32.8977 193.653 35.5682 193.653 38.6818V74H179.881V66.7386H179.472C178.631 68.375 177.506 69.8182 176.097 71.0682C174.688 72.2955 172.994 73.2614 171.017 73.9659C169.04 74.6477 166.756 74.9886 164.165 74.9886ZM168.324 64.9659C170.46 64.9659 172.347 64.5455 173.983 63.7045C175.619 62.8409 176.903 61.6818 177.835 60.2273C178.767 58.7727 179.233 57.125 179.233 55.2841V49.7273C178.778 50.0227 178.153 50.2955 177.358 50.5455C176.585 50.7727 175.71 50.9886 174.733 51.1932C173.756 51.375 172.778 51.5455 171.801 51.7045C170.824 51.8409 169.938 51.9659 169.142 52.0795C167.438 52.3295 165.949 52.7273 164.676 53.2727C163.403 53.8182 162.415 54.5568 161.71 55.4886C161.006 56.3977 160.653 57.5341 160.653 58.8977C160.653 60.875 161.369 62.3864 162.801 63.4318C164.256 64.4545 166.097 64.9659 168.324 64.9659ZM227.412 74V4.18182H241.935V30.4318H242.378C243.014 29.0227 243.935 27.5909 245.139 26.1364C246.366 24.6591 247.957 23.4318 249.912 22.4545C251.889 21.4545 254.344 20.9545 257.276 20.9545C261.094 20.9545 264.616 21.9545 267.844 23.9545C271.071 25.9318 273.651 28.9205 275.582 32.9205C277.514 36.8977 278.48 41.8864 278.48 47.8864C278.48 53.7273 277.537 58.6591 275.651 62.6818C273.787 66.6818 271.241 69.7159 268.014 71.7841C264.81 73.8295 261.219 74.8523 257.241 74.8523C254.423 74.8523 252.026 74.3864 250.048 73.4545C248.094 72.5227 246.491 71.3523 245.241 69.9432C243.991 68.5114 243.037 67.0682 242.378 65.6136H241.73V74H227.412ZM241.628 47.8182C241.628 50.9318 242.06 53.6477 242.923 55.9659C243.787 58.2841 245.037 60.0909 246.673 61.3864C248.31 62.6591 250.298 63.2955 252.639 63.2955C255.003 63.2955 257.003 62.6477 258.639 61.3523C260.276 60.0341 261.514 58.2159 262.355 55.8977C263.219 53.5568 263.651 50.8636 263.651 47.8182C263.651 44.7955 263.23 42.1364 262.389 39.8409C261.548 37.5455 260.31 35.75 258.673 34.4545C257.037 33.1591 255.026 32.5114 252.639 32.5114C250.276 32.5114 248.276 33.1364 246.639 34.3864C245.026 35.6364 243.787 37.4091 242.923 39.7045C242.06 42 241.628 44.7045 241.628 47.8182ZM312.034 75.0227C306.648 75.0227 302.011 73.9318 298.125 71.75C294.261 69.5455 291.284 66.4318 289.193 62.4091C287.102 58.3636 286.057 53.5795 286.057 48.0568C286.057 42.6705 287.102 37.9432 289.193 33.875C291.284 29.8068 294.227 26.6364 298.023 24.3636C301.841 22.0909 306.318 20.9545 311.455 20.9545C314.909 20.9545 318.125 21.5114 321.102 22.625C324.102 23.7159 326.716 25.3636 328.943 27.5682C331.193 29.7727 332.943 32.5455 334.193 35.8864C335.443 39.2045 336.068 43.0909 336.068 47.5455V51.5341H291.852V42.5341H322.398C322.398 40.4432 321.943 38.5909 321.034 36.9773C320.125 35.3636 318.864 34.1023 317.25 33.1932C315.659 32.2614 313.807 31.7955 311.693 31.7955C309.489 31.7955 307.534 32.3068 305.83 33.3295C304.148 34.3295 302.83 35.6818 301.875 37.3864C300.92 39.0682 300.432 40.9432 300.409 43.0114V51.5682C300.409 54.1591 300.886 56.3977 301.841 58.2841C302.818 60.1705 304.193 61.625 305.966 62.6477C307.739 63.6705 309.841 64.1818 312.273 64.1818C313.886 64.1818 315.364 63.9545 316.705 63.5C318.045 63.0455 319.193 62.3636 320.148 61.4545C321.102 60.5455 321.83 59.4318 322.33 58.1136L335.761 59C335.08 62.2273 333.682 65.0455 331.568 67.4545C329.477 69.8409 326.773 71.7045 323.455 73.0455C320.159 74.3636 316.352 75.0227 312.034 75.0227ZM345.545 74V21.6364H359.386V30.875H360C361.091 27.8068 362.909 25.3864 365.455 23.6136C368 21.8409 371.045 20.9545 374.591 20.9545C378.182 20.9545 381.239 21.8523 383.761 23.6477C386.284 25.4205 387.966 27.8295 388.807 30.875H389.352C390.42 27.875 392.352 25.4773 395.148 23.6818C397.966 21.8636 401.295 20.9545 405.136 20.9545C410.023 20.9545 413.989 22.5114 417.034 25.625C420.102 28.7159 421.636 33.1023 421.636 38.7841V74H407.148V41.6477C407.148 38.7386 406.375 36.5568 404.83 35.1023C403.284 33.6477 401.352 32.9205 399.034 32.9205C396.398 32.9205 394.341 33.7614 392.864 35.4432C391.386 37.1023 390.648 39.2955 390.648 42.0227V74H376.568V41.3409C376.568 38.7727 375.83 36.7273 374.352 35.2045C372.898 33.6818 370.977 32.9205 368.591 32.9205C366.977 32.9205 365.523 33.3295 364.227 34.1477C362.955 34.9432 361.943 36.0682 361.193 37.5227C360.443 38.9545 360.068 40.6364 360.068 42.5682V74H345.545ZM465.733 39.5682V51.0909H433.892V39.5682H465.733ZM526.926 21.6364L508.619 74H492.256L473.949 21.6364H489.29L500.165 59.1023H500.71L511.551 21.6364H526.926ZM534.358 74V21.6364H548.881V74H534.358ZM541.653 14.8864C539.494 14.8864 537.642 14.1705 536.097 12.7386C534.574 11.2841 533.812 9.54545 533.812 7.52272C533.812 5.52272 534.574 3.80682 536.097 2.375C537.642 0.920452 539.494 0.193178 541.653 0.193178C543.813 0.193178 545.653 0.920452 547.176 2.375C548.722 3.80682 549.494 5.52272 549.494 7.52272C549.494 9.54545 548.722 11.2841 547.176 12.7386C545.653 14.1705 543.813 14.8864 541.653 14.8864ZM575.037 43.7273V74H560.514V21.6364H574.355V30.875H574.969C576.128 27.8295 578.071 25.4205 580.798 23.6477C583.526 21.8523 586.832 20.9545 590.719 20.9545C594.355 20.9545 597.526 21.75 600.23 23.3409C602.935 24.9318 605.037 27.2045 606.537 30.1591C608.037 33.0909 608.787 36.5909 608.787 40.6591V74H594.264V43.25C594.287 40.0455 593.469 37.5455 591.81 35.75C590.151 33.9318 587.866 33.0227 584.957 33.0227C583.003 33.0227 581.276 33.4432 579.776 34.2841C578.298 35.125 577.139 36.3523 576.298 37.9659C575.48 39.5568 575.06 41.4773 575.037 43.7273ZM639.528 74.8523C635.551 74.8523 631.949 73.8295 628.722 71.7841C625.517 69.7159 622.972 66.6818 621.085 62.6818C619.222 58.6591 618.29 53.7273 618.29 47.8864C618.29 41.8864 619.256 36.8977 621.188 32.9205C623.119 28.9205 625.688 25.9318 628.892 23.9545C632.119 21.9545 635.653 20.9545 639.494 20.9545C642.426 20.9545 644.869 21.4545 646.824 22.4545C648.801 23.4318 650.392 24.6591 651.597 26.1364C652.824 27.5909 653.756 29.0227 654.392 30.4318H654.835V4.18182H669.324V74H655.006V65.6136H654.392C653.71 67.0682 652.744 68.5114 651.494 69.9432C650.267 71.3523 648.665 72.5227 646.688 73.4545C644.733 74.3864 642.347 74.8523 639.528 74.8523ZM644.131 63.2955C646.472 63.2955 648.449 62.6591 650.062 61.3864C651.699 60.0909 652.949 58.2841 653.812 55.9659C654.699 53.6477 655.142 50.9318 655.142 47.8182C655.142 44.7045 654.71 42 653.847 39.7045C652.983 37.4091 651.733 35.6364 650.097 34.3864C648.46 33.1364 646.472 32.5114 644.131 32.5114C641.744 32.5114 639.733 33.1591 638.097 34.4545C636.46 35.75 635.222 37.5455 634.381 39.8409C633.54 42.1364 633.119 44.7955 633.119 47.8182C633.119 50.8636 633.54 53.5568 634.381 55.8977C635.244 58.2159 636.483 60.0341 638.097 61.3523C639.733 62.6477 641.744 63.2955 644.131 63.2955ZM704.923 75.0227C699.628 75.0227 695.048 73.8977 691.185 71.6477C687.344 69.375 684.378 66.2159 682.287 62.1705C680.196 58.1023 679.151 53.3864 679.151 48.0227C679.151 42.6136 680.196 37.8864 682.287 33.8409C684.378 29.7727 687.344 26.6136 691.185 24.3636C695.048 22.0909 699.628 20.9545 704.923 20.9545C710.219 20.9545 714.787 22.0909 718.628 24.3636C722.491 26.6136 725.469 29.7727 727.56 33.8409C729.651 37.8864 730.696 42.6136 730.696 48.0227C730.696 53.3864 729.651 58.1023 727.56 62.1705C725.469 66.2159 722.491 69.375 718.628 71.6477C714.787 73.8977 710.219 75.0227 704.923 75.0227ZM704.991 63.7727C707.401 63.7727 709.412 63.0909 711.026 61.7273C712.639 60.3409 713.855 58.4545 714.673 56.0682C715.514 53.6818 715.935 50.9659 715.935 47.9205C715.935 44.875 715.514 42.1591 714.673 39.7727C713.855 37.3864 712.639 35.5 711.026 34.1136C709.412 32.7273 707.401 32.0341 704.991 32.0341C702.56 32.0341 700.514 32.7273 698.855 34.1136C697.219 35.5 695.98 37.3864 695.139 39.7727C694.321 42.1591 693.912 44.875 693.912 47.9205C693.912 50.9659 694.321 53.6818 695.139 56.0682C695.98 58.4545 697.219 60.3409 698.855 61.7273C700.514 63.0909 702.56 63.7727 704.991 63.7727ZM757.491 4.18182L756.162 53.0682H743.685L742.321 4.18182H757.491ZM749.923 74.8864C747.673 74.8864 745.741 74.0909 744.128 72.5C742.514 70.8864 741.719 68.9545 741.741 66.7045C741.719 64.4773 742.514 62.5682 744.128 60.9773C745.741 59.3864 747.673 58.5909 749.923 58.5909C752.082 58.5909 753.98 59.3864 755.616 60.9773C757.253 62.5682 758.082 64.4773 758.105 66.7045C758.082 68.2045 757.685 69.5795 756.912 70.8295C756.162 72.0568 755.173 73.0455 753.946 73.7955C752.719 74.5227 751.378 74.8864 749.923 74.8864Z" fill="url(#paint0_linear_147_93)"/>
<defs>
<linearGradient id="paint0_linear_147_93" x1="386" y1="-19" x2="386" y2="97" gradientUnits="userSpaceOnUse">
<stop stop-color="#FFA8E1"/>
<stop offset="0.57" stop-color="#E237B2"/>
</linearGradient>
</defs>
</svg>
