<svg width="174" height="26" viewBox="0 0 174 26" fill="none" xmlns="http://www.w3.org/2000/svg">
<path d="M8.27273 25H0.0227273V1.72727H8.34091C10.6818 1.72727 12.697 2.19318 14.3864 3.125C16.0758 4.04924 17.375 5.37879 18.2841 7.11364C19.2008 8.84848 19.6591 10.9242 19.6591 13.3409C19.6591 15.7652 19.2008 17.8485 18.2841 19.5909C17.375 21.3333 16.0682 22.6705 14.3636 23.6023C12.6667 24.5341 10.6364 25 8.27273 25ZM4.94318 20.7841H8.06818C9.52273 20.7841 10.7462 20.5265 11.7386 20.0114C12.7386 19.4886 13.4886 18.6818 13.9886 17.5909C14.4962 16.4924 14.75 15.0758 14.75 13.3409C14.75 11.6212 14.4962 10.2159 13.9886 9.125C13.4886 8.03409 12.7424 7.23106 11.75 6.71591C10.7576 6.20076 9.53409 5.94318 8.07955 5.94318H4.94318V20.7841ZM31.0994 25.3409C29.3343 25.3409 27.8078 24.9659 26.5199 24.2159C25.2396 23.4583 24.2509 22.4053 23.554 21.0568C22.857 19.7008 22.5085 18.1288 22.5085 16.3409C22.5085 14.5379 22.857 12.9621 23.554 11.6136C24.2509 10.2576 25.2396 9.20454 26.5199 8.45454C27.8078 7.69697 29.3343 7.31818 31.0994 7.31818C32.8646 7.31818 34.3873 7.69697 35.6676 8.45454C36.9555 9.20454 37.9479 10.2576 38.6449 11.6136C39.3419 12.9621 39.6903 14.5379 39.6903 16.3409C39.6903 18.1288 39.3419 19.7008 38.6449 21.0568C37.9479 22.4053 36.9555 23.4583 35.6676 24.2159C34.3873 24.9659 32.8646 25.3409 31.0994 25.3409ZM31.1222 21.5909C31.9252 21.5909 32.5956 21.3636 33.1335 20.9091C33.6714 20.447 34.0767 19.8182 34.3494 19.0227C34.6297 18.2273 34.7699 17.322 34.7699 16.3068C34.7699 15.2917 34.6297 14.3864 34.3494 13.5909C34.0767 12.7955 33.6714 12.1667 33.1335 11.7045C32.5956 11.2424 31.9252 11.0114 31.1222 11.0114C30.3116 11.0114 29.6297 11.2424 29.0767 11.7045C28.5313 12.1667 28.1184 12.7955 27.8381 13.5909C27.5653 14.3864 27.429 15.2917 27.429 16.3068C27.429 17.322 27.5653 18.2273 27.8381 19.0227C28.1184 19.8182 28.5313 20.447 29.0767 20.9091C29.6297 21.3636 30.3116 21.5909 31.1222 21.5909ZM42.8381 25V7.54545H47.5312V10.5909H47.7131C48.0313 9.50758 48.5653 8.68939 49.3153 8.13636C50.0653 7.57576 50.929 7.29545 51.9062 7.29545C52.1487 7.29545 52.41 7.31061 52.6903 7.34091C52.9706 7.37121 53.2169 7.41288 53.429 7.46591V11.7614C53.2017 11.6932 52.8873 11.6326 52.4858 11.5795C52.0843 11.5265 51.7169 11.5 51.3835 11.5C50.6714 11.5 50.035 11.6553 49.4744 11.9659C48.9214 12.2689 48.482 12.6932 48.1562 13.2386C47.8381 13.7841 47.679 14.4129 47.679 15.125V25H42.8381ZM60.4091 25.3295C59.2955 25.3295 58.303 25.1364 57.4318 24.75C56.5606 24.3561 55.8712 23.7765 55.3636 23.0114C54.8636 22.2386 54.6136 21.2765 54.6136 20.125C54.6136 19.1553 54.7917 18.3409 55.1477 17.6818C55.5038 17.0227 55.9886 16.4924 56.6023 16.0909C57.2159 15.6894 57.9129 15.3864 58.6932 15.1818C59.4811 14.9773 60.3068 14.8333 61.1705 14.75C62.1856 14.6439 63.0038 14.5455 63.625 14.4545C64.2462 14.3561 64.697 14.2121 64.9773 14.0227C65.2576 13.8333 65.3977 13.553 65.3977 13.1818V13.1136C65.3977 12.3939 65.1705 11.8371 64.7159 11.4432C64.2689 11.0492 63.6326 10.8523 62.8068 10.8523C61.9356 10.8523 61.2424 11.0455 60.7273 11.4318C60.2121 11.8106 59.8712 12.2879 59.7045 12.8636L55.2273 12.5C55.4545 11.4394 55.9015 10.5227 56.5682 9.75C57.2348 8.9697 58.0947 8.37121 59.1477 7.95454C60.2083 7.5303 61.4356 7.31818 62.8295 7.31818C63.7992 7.31818 64.7273 7.43182 65.6136 7.65909C66.5076 7.88636 67.2992 8.23864 67.9886 8.71591C68.6856 9.19318 69.2348 9.80682 69.6364 10.5568C70.0379 11.2992 70.2386 12.1894 70.2386 13.2273V25H65.6477V22.5795H65.5114C65.2311 23.125 64.8561 23.6061 64.3864 24.0227C63.9167 24.4318 63.3523 24.7538 62.6932 24.9886C62.0341 25.2159 61.2727 25.3295 60.4091 25.3295ZM61.7955 21.9886C62.5076 21.9886 63.1364 21.8485 63.6818 21.5682C64.2273 21.2803 64.6553 20.8939 64.9659 20.4091C65.2765 19.9242 65.4318 19.375 65.4318 18.7614V16.9091C65.2803 17.0076 65.072 17.0985 64.8068 17.1818C64.5492 17.2576 64.2576 17.3295 63.9318 17.3977C63.6061 17.4583 63.2803 17.5152 62.9545 17.5682C62.6288 17.6136 62.3333 17.6553 62.0682 17.6932C61.5 17.7765 61.0038 17.9091 60.5795 18.0909C60.1553 18.2727 59.8258 18.5189 59.5909 18.8295C59.3561 19.1326 59.2386 19.5114 59.2386 19.9659C59.2386 20.625 59.4773 21.1288 59.9545 21.4773C60.4394 21.8182 61.053 21.9886 61.7955 21.9886ZM73.9943 25V7.54545H78.608V10.625H78.8125C79.1761 9.60227 79.7822 8.79545 80.6307 8.20454C81.4792 7.61364 82.4943 7.31818 83.6761 7.31818C84.8731 7.31818 85.892 7.61742 86.733 8.21591C87.5739 8.80682 88.1345 9.60985 88.4148 10.625H88.5966C88.9527 9.625 89.5966 8.82576 90.5284 8.22727C91.4678 7.62121 92.5777 7.31818 93.858 7.31818C95.4867 7.31818 96.8087 7.83712 97.8239 8.875C98.8466 9.9053 99.358 11.3674 99.358 13.2614V25H94.5284V14.2159C94.5284 13.2462 94.2708 12.5189 93.7557 12.0341C93.2405 11.5492 92.5966 11.3068 91.8239 11.3068C90.9451 11.3068 90.2595 11.5871 89.767 12.1477C89.2746 12.7008 89.0284 13.4318 89.0284 14.3409V25H84.3352V14.1136C84.3352 13.2576 84.089 12.5758 83.5966 12.0682C83.1117 11.5606 82.4716 11.3068 81.6761 11.3068C81.1383 11.3068 80.6534 11.4432 80.2216 11.7159C79.7973 11.9811 79.4602 12.3561 79.2102 12.8409C78.9602 13.3182 78.8352 13.8788 78.8352 14.5227V25H73.9943ZM108.159 25.3295C107.045 25.3295 106.053 25.1364 105.182 24.75C104.311 24.3561 103.621 23.7765 103.114 23.0114C102.614 22.2386 102.364 21.2765 102.364 20.125C102.364 19.1553 102.542 18.3409 102.898 17.6818C103.254 17.0227 103.739 16.4924 104.352 16.0909C104.966 15.6894 105.663 15.3864 106.443 15.1818C107.231 14.9773 108.057 14.8333 108.92 14.75C109.936 14.6439 110.754 14.5455 111.375 14.4545C111.996 14.3561 112.447 14.2121 112.727 14.0227C113.008 13.8333 113.148 13.553 113.148 13.1818V13.1136C113.148 12.3939 112.92 11.8371 112.466 11.4432C112.019 11.0492 111.383 10.8523 110.557 10.8523C109.686 10.8523 108.992 11.0455 108.477 11.4318C107.962 11.8106 107.621 12.2879 107.455 12.8636L102.977 12.5C103.205 11.4394 103.652 10.5227 104.318 9.75C104.985 8.9697 105.845 8.37121 106.898 7.95454C107.958 7.5303 109.186 7.31818 110.58 7.31818C111.549 7.31818 112.477 7.43182 113.364 7.65909C114.258 7.88636 115.049 8.23864 115.739 8.71591C116.436 9.19318 116.985 9.80682 117.386 10.5568C117.788 11.2992 117.989 12.1894 117.989 13.2273V25H113.398V22.5795H113.261C112.981 23.125 112.606 23.6061 112.136 24.0227C111.667 24.4318 111.102 24.7538 110.443 24.9886C109.784 25.2159 109.023 25.3295 108.159 25.3295ZM109.545 21.9886C110.258 21.9886 110.886 21.8485 111.432 21.5682C111.977 21.2803 112.405 20.8939 112.716 20.4091C113.027 19.9242 113.182 19.375 113.182 18.7614V16.9091C113.03 17.0076 112.822 17.0985 112.557 17.1818C112.299 17.2576 112.008 17.3295 111.682 17.3977C111.356 17.4583 111.03 17.5152 110.705 17.5682C110.379 17.6136 110.083 17.6553 109.818 17.6932C109.25 17.7765 108.754 17.9091 108.33 18.0909C107.905 18.2727 107.576 18.5189 107.341 18.8295C107.106 19.1326 106.989 19.5114 106.989 19.9659C106.989 20.625 107.227 21.1288 107.705 21.4773C108.189 21.8182 108.803 21.9886 109.545 21.9886ZM121.835 25V1.72727H137.244V5.78409H126.756V11.3295H136.222V15.3864H126.756V25H121.835ZM145.304 1.72727V25H140.463V1.72727H145.304ZM149.182 25V7.54545H154.023V25H149.182ZM151.614 5.29545C150.894 5.29545 150.277 5.05682 149.761 4.57954C149.254 4.0947 149 3.51515 149 2.84091C149 2.17424 149.254 1.60227 149.761 1.125C150.277 0.640151 150.894 0.397726 151.614 0.397726C152.333 0.397726 152.947 0.640151 153.455 1.125C153.97 1.60227 154.227 2.17424 154.227 2.84091C154.227 3.51515 153.97 4.0947 153.455 4.57954C152.947 5.05682 152.333 5.29545 151.614 5.29545ZM161.946 7.54545L165.151 13.6477L168.435 7.54545H173.401L168.344 16.2727L173.537 25H168.594L165.151 18.9659L161.764 25H156.764L161.946 16.2727L156.946 7.54545H161.946Z" fill="url(#paint0_linear_65_2)"/>
<defs>
<linearGradient id="paint0_linear_65_2" x1="86.5" y1="-6" x2="86.5" y2="33" gradientUnits="userSpaceOnUse">
<stop stop-color="#FFA8E1"/>
<stop offset="0.57" stop-color="#E237B2"/>
</linearGradient>
</defs>
</svg>
