<svg width="274" height="32" viewBox="0 0 274 32" fill="none" xmlns="http://www.w3.org/2000/svg">
<path d="M8.27273 25H0.0227273V1.72727H8.34091C10.6818 1.72727 12.697 2.19318 14.3864 3.125C16.0758 4.04924 17.375 5.37879 18.2841 7.11364C19.2008 8.84848 19.6591 10.9242 19.6591 13.3409C19.6591 15.7652 19.2008 17.8485 18.2841 19.5909C17.375 21.3333 16.0682 22.6705 14.3636 23.6023C12.6667 24.5341 10.6364 25 8.27273 25ZM4.94318 20.7841H8.06818C9.52273 20.7841 10.7462 20.5265 11.7386 20.0114C12.7386 19.4886 13.4886 18.6818 13.9886 17.5909C14.4962 16.4924 14.75 15.0758 14.75 13.3409C14.75 11.6212 14.4962 10.2159 13.9886 9.125C13.4886 8.03409 12.7424 7.23106 11.75 6.71591C10.7576 6.20076 9.53409 5.94318 8.07955 5.94318H4.94318V20.7841ZM31.0994 25.3409C29.3343 25.3409 27.8078 24.9659 26.5199 24.2159C25.2396 23.4583 24.2509 22.4053 23.554 21.0568C22.857 19.7008 22.5085 18.1288 22.5085 16.3409C22.5085 14.5379 22.857 12.9621 23.554 11.6136C24.2509 10.2576 25.2396 9.20454 26.5199 8.45454C27.8078 7.69697 29.3343 7.31818 31.0994 7.31818C32.8646 7.31818 34.3873 7.69697 35.6676 8.45454C36.9555 9.20454 37.9479 10.2576 38.6449 11.6136C39.3419 12.9621 39.6903 14.5379 39.6903 16.3409C39.6903 18.1288 39.3419 19.7008 38.6449 21.0568C37.9479 22.4053 36.9555 23.4583 35.6676 24.2159C34.3873 24.9659 32.8646 25.3409 31.0994 25.3409ZM31.1222 21.5909C31.9252 21.5909 32.5956 21.3636 33.1335 20.9091C33.6714 20.447 34.0767 19.8182 34.3494 19.0227C34.6297 18.2273 34.7699 17.322 34.7699 16.3068C34.7699 15.2917 34.6297 14.3864 34.3494 13.5909C34.0767 12.7955 33.6714 12.1667 33.1335 11.7045C32.5956 11.2424 31.9252 11.0114 31.1222 11.0114C30.3116 11.0114 29.6297 11.2424 29.0767 11.7045C28.5313 12.1667 28.1184 12.7955 27.8381 13.5909C27.5653 14.3864 27.429 15.2917 27.429 16.3068C27.429 17.322 27.5653 18.2273 27.8381 19.0227C28.1184 19.8182 28.5313 20.447 29.0767 20.9091C29.6297 21.3636 30.3116 21.5909 31.1222 21.5909ZM42.8381 25V7.54545H47.5312V10.5909H47.7131C48.0313 9.50758 48.5653 8.68939 49.3153 8.13636C50.0653 7.57576 50.929 7.29545 51.9062 7.29545C52.1487 7.29545 52.41 7.31061 52.6903 7.34091C52.9706 7.37121 53.2169 7.41288 53.429 7.46591V11.7614C53.2017 11.6932 52.8873 11.6326 52.4858 11.5795C52.0843 11.5265 51.7169 11.5 51.3835 11.5C50.6714 11.5 50.035 11.6553 49.4744 11.9659C48.9214 12.2689 48.482 12.6932 48.1562 13.2386C47.8381 13.7841 47.679 14.4129 47.679 15.125V25H42.8381ZM60.4091 25.3295C59.2955 25.3295 58.303 25.1364 57.4318 24.75C56.5606 24.3561 55.8712 23.7765 55.3636 23.0114C54.8636 22.2386 54.6136 21.2765 54.6136 20.125C54.6136 19.1553 54.7917 18.3409 55.1477 17.6818C55.5038 17.0227 55.9886 16.4924 56.6023 16.0909C57.2159 15.6894 57.9129 15.3864 58.6932 15.1818C59.4811 14.9773 60.3068 14.8333 61.1705 14.75C62.1856 14.6439 63.0038 14.5455 63.625 14.4545C64.2462 14.3561 64.697 14.2121 64.9773 14.0227C65.2576 13.8333 65.3977 13.553 65.3977 13.1818V13.1136C65.3977 12.3939 65.1705 11.8371 64.7159 11.4432C64.2689 11.0492 63.6326 10.8523 62.8068 10.8523C61.9356 10.8523 61.2424 11.0455 60.7273 11.4318C60.2121 11.8106 59.8712 12.2879 59.7045 12.8636L55.2273 12.5C55.4545 11.4394 55.9015 10.5227 56.5682 9.75C57.2348 8.9697 58.0947 8.37121 59.1477 7.95454C60.2083 7.5303 61.4356 7.31818 62.8295 7.31818C63.7992 7.31818 64.7273 7.43182 65.6136 7.65909C66.5076 7.88636 67.2992 8.23864 67.9886 8.71591C68.6856 9.19318 69.2348 9.80682 69.6364 10.5568C70.0379 11.2992 70.2386 12.1894 70.2386 13.2273V25H65.6477V22.5795H65.5114C65.2311 23.125 64.8561 23.6061 64.3864 24.0227C63.9167 24.4318 63.3523 24.7538 62.6932 24.9886C62.0341 25.2159 61.2727 25.3295 60.4091 25.3295ZM61.7955 21.9886C62.5076 21.9886 63.1364 21.8485 63.6818 21.5682C64.2273 21.2803 64.6553 20.8939 64.9659 20.4091C65.2765 19.9242 65.4318 19.375 65.4318 18.7614V16.9091C65.2803 17.0076 65.072 17.0985 64.8068 17.1818C64.5492 17.2576 64.2576 17.3295 63.9318 17.3977C63.6061 17.4583 63.2803 17.5152 62.9545 17.5682C62.6288 17.6136 62.3333 17.6553 62.0682 17.6932C61.5 17.7765 61.0038 17.9091 60.5795 18.0909C60.1553 18.2727 59.8258 18.5189 59.5909 18.8295C59.3561 19.1326 59.2386 19.5114 59.2386 19.9659C59.2386 20.625 59.4773 21.1288 59.9545 21.4773C60.4394 21.8182 61.053 21.9886 61.7955 21.9886ZM73.9943 25V7.54545H78.608V10.625H78.8125C79.1761 9.60227 79.7822 8.79545 80.6307 8.20454C81.4792 7.61364 82.4943 7.31818 83.6761 7.31818C84.8731 7.31818 85.892 7.61742 86.733 8.21591C87.5739 8.80682 88.1345 9.60985 88.4148 10.625H88.5966C88.9527 9.625 89.5966 8.82576 90.5284 8.22727C91.4678 7.62121 92.5777 7.31818 93.858 7.31818C95.4867 7.31818 96.8087 7.83712 97.8239 8.875C98.8466 9.9053 99.358 11.3674 99.358 13.2614V25H94.5284V14.2159C94.5284 13.2462 94.2708 12.5189 93.7557 12.0341C93.2405 11.5492 92.5966 11.3068 91.8239 11.3068C90.9451 11.3068 90.2595 11.5871 89.767 12.1477C89.2746 12.7008 89.0284 13.4318 89.0284 14.3409V25H84.3352V14.1136C84.3352 13.2576 84.089 12.5758 83.5966 12.0682C83.1117 11.5606 82.4716 11.3068 81.6761 11.3068C81.1383 11.3068 80.6534 11.4432 80.2216 11.7159C79.7973 11.9811 79.4602 12.3561 79.2102 12.8409C78.9602 13.3182 78.8352 13.8788 78.8352 14.5227V25H73.9943ZM108.159 25.3295C107.045 25.3295 106.053 25.1364 105.182 24.75C104.311 24.3561 103.621 23.7765 103.114 23.0114C102.614 22.2386 102.364 21.2765 102.364 20.125C102.364 19.1553 102.542 18.3409 102.898 17.6818C103.254 17.0227 103.739 16.4924 104.352 16.0909C104.966 15.6894 105.663 15.3864 106.443 15.1818C107.231 14.9773 108.057 14.8333 108.92 14.75C109.936 14.6439 110.754 14.5455 111.375 14.4545C111.996 14.3561 112.447 14.2121 112.727 14.0227C113.008 13.8333 113.148 13.553 113.148 13.1818V13.1136C113.148 12.3939 112.92 11.8371 112.466 11.4432C112.019 11.0492 111.383 10.8523 110.557 10.8523C109.686 10.8523 108.992 11.0455 108.477 11.4318C107.962 11.8106 107.621 12.2879 107.455 12.8636L102.977 12.5C103.205 11.4394 103.652 10.5227 104.318 9.75C104.985 8.9697 105.845 8.37121 106.898 7.95454C107.958 7.5303 109.186 7.31818 110.58 7.31818C111.549 7.31818 112.477 7.43182 113.364 7.65909C114.258 7.88636 115.049 8.23864 115.739 8.71591C116.436 9.19318 116.985 9.80682 117.386 10.5568C117.788 11.2992 117.989 12.1894 117.989 13.2273V25H113.398V22.5795H113.261C112.981 23.125 112.606 23.6061 112.136 24.0227C111.667 24.4318 111.102 24.7538 110.443 24.9886C109.784 25.2159 109.023 25.3295 108.159 25.3295ZM109.545 21.9886C110.258 21.9886 110.886 21.8485 111.432 21.5682C111.977 21.2803 112.405 20.8939 112.716 20.4091C113.027 19.9242 113.182 19.375 113.182 18.7614V16.9091C113.03 17.0076 112.822 17.0985 112.557 17.1818C112.299 17.2576 112.008 17.3295 111.682 17.3977C111.356 17.4583 111.03 17.5152 110.705 17.5682C110.379 17.6136 110.083 17.6553 109.818 17.6932C109.25 17.7765 108.754 17.9091 108.33 18.0909C107.905 18.2727 107.576 18.5189 107.341 18.8295C107.106 19.1326 106.989 19.5114 106.989 19.9659C106.989 20.625 107.227 21.1288 107.705 21.4773C108.189 21.8182 108.803 21.9886 109.545 21.9886ZM143.222 13.3636C143.222 15.9015 142.741 18.0606 141.778 19.8409C140.824 21.6212 139.521 22.9811 137.869 23.9205C136.225 24.8523 134.377 25.3182 132.324 25.3182C130.256 25.3182 128.4 24.8485 126.756 23.9091C125.112 22.9697 123.813 21.6098 122.858 19.8295C121.903 18.0492 121.426 15.8939 121.426 13.3636C121.426 10.8258 121.903 8.66667 122.858 6.88636C123.813 5.10606 125.112 3.75 126.756 2.81818C128.4 1.87879 130.256 1.40909 132.324 1.40909C134.377 1.40909 136.225 1.87879 137.869 2.81818C139.521 3.75 140.824 5.10606 141.778 6.88636C142.741 8.66667 143.222 10.8258 143.222 13.3636ZM138.233 13.3636C138.233 11.7197 137.987 10.3333 137.494 9.20455C137.009 8.07576 136.324 7.2197 135.438 6.63636C134.551 6.05303 133.513 5.76136 132.324 5.76136C131.134 5.76136 130.097 6.05303 129.21 6.63636C128.324 7.2197 127.634 8.07576 127.142 9.20455C126.657 10.3333 126.415 11.7197 126.415 13.3636C126.415 15.0076 126.657 16.3939 127.142 17.5227C127.634 18.6515 128.324 19.5076 129.21 20.0909C130.097 20.6742 131.134 20.9659 132.324 20.9659C133.513 20.9659 134.551 20.6742 135.438 20.0909C136.324 19.5076 137.009 18.6515 137.494 17.5227C137.987 16.3939 138.233 15.0076 138.233 13.3636ZM146.776 25V7.54545H151.469V10.5909H151.651C151.969 9.50758 152.503 8.68939 153.253 8.13636C154.003 7.57576 154.866 7.29545 155.844 7.29545C156.086 7.29545 156.348 7.31061 156.628 7.34091C156.908 7.37121 157.154 7.41288 157.366 7.46591V11.7614C157.139 11.6932 156.825 11.6326 156.423 11.5795C156.022 11.5265 155.654 11.5 155.321 11.5C154.609 11.5 153.973 11.6553 153.412 11.9659C152.859 12.2689 152.42 12.6932 152.094 13.2386C151.776 13.7841 151.616 14.4129 151.616 15.125V25H146.776ZM166.92 31.9091C165.352 31.9091 164.008 31.6932 162.886 31.2614C161.773 30.8371 160.886 30.2576 160.227 29.5227C159.568 28.7879 159.14 27.9621 158.943 27.0455L163.42 26.4432C163.557 26.7917 163.773 27.1174 164.068 27.4205C164.364 27.7235 164.754 27.9659 165.239 28.1477C165.731 28.3371 166.33 28.4318 167.034 28.4318C168.087 28.4318 168.955 28.1742 169.636 27.6591C170.326 27.1515 170.67 26.2992 170.67 25.1023V21.9091H170.466C170.254 22.3939 169.936 22.8523 169.511 23.2841C169.087 23.7159 168.542 24.0682 167.875 24.3409C167.208 24.6136 166.413 24.75 165.489 24.75C164.178 24.75 162.985 24.447 161.909 23.8409C160.841 23.2273 159.989 22.2917 159.352 21.0341C158.723 19.7689 158.409 18.1705 158.409 16.2386C158.409 14.2614 158.731 12.6098 159.375 11.2841C160.019 9.95833 160.875 8.96591 161.943 8.30682C163.019 7.64773 164.197 7.31818 165.477 7.31818C166.455 7.31818 167.273 7.48485 167.932 7.81818C168.591 8.14394 169.121 8.55303 169.523 9.04545C169.932 9.5303 170.246 10.0076 170.466 10.4773H170.648V7.54545H175.455V25.1705C175.455 26.6553 175.091 27.8977 174.364 28.8977C173.636 29.8977 172.629 30.6477 171.341 31.1477C170.061 31.6553 168.587 31.9091 166.92 31.9091ZM167.023 21.1136C167.803 21.1136 168.462 20.9205 169 20.5341C169.545 20.1402 169.962 19.5795 170.25 18.8523C170.545 18.1174 170.693 17.2386 170.693 16.2159C170.693 15.1932 170.549 14.3068 170.261 13.5568C169.973 12.7992 169.557 12.2121 169.011 11.7955C168.466 11.3788 167.803 11.1705 167.023 11.1705C166.227 11.1705 165.557 11.3864 165.011 11.8182C164.466 12.2424 164.053 12.8333 163.773 13.5909C163.492 14.3485 163.352 15.2235 163.352 16.2159C163.352 17.2235 163.492 18.0947 163.773 18.8295C164.061 19.5568 164.473 20.1212 165.011 20.5227C165.557 20.9167 166.227 21.1136 167.023 21.1136ZM184.284 25.3295C183.17 25.3295 182.178 25.1364 181.307 24.75C180.436 24.3561 179.746 23.7765 179.239 23.0114C178.739 22.2386 178.489 21.2765 178.489 20.125C178.489 19.1553 178.667 18.3409 179.023 17.6818C179.379 17.0227 179.864 16.4924 180.477 16.0909C181.091 15.6894 181.788 15.3864 182.568 15.1818C183.356 14.9773 184.182 14.8333 185.045 14.75C186.061 14.6439 186.879 14.5455 187.5 14.4545C188.121 14.3561 188.572 14.2121 188.852 14.0227C189.133 13.8333 189.273 13.553 189.273 13.1818V13.1136C189.273 12.3939 189.045 11.8371 188.591 11.4432C188.144 11.0492 187.508 10.8523 186.682 10.8523C185.811 10.8523 185.117 11.0455 184.602 11.4318C184.087 11.8106 183.746 12.2879 183.58 12.8636L179.102 12.5C179.33 11.4394 179.777 10.5227 180.443 9.75C181.11 8.9697 181.97 8.37121 183.023 7.95454C184.083 7.5303 185.311 7.31818 186.705 7.31818C187.674 7.31818 188.602 7.43182 189.489 7.65909C190.383 7.88636 191.174 8.23864 191.864 8.71591C192.561 9.19318 193.11 9.80682 193.511 10.5568C193.913 11.2992 194.114 12.1894 194.114 13.2273V25H189.523V22.5795H189.386C189.106 23.125 188.731 23.6061 188.261 24.0227C187.792 24.4318 187.227 24.7538 186.568 24.9886C185.909 25.2159 185.148 25.3295 184.284 25.3295ZM185.67 21.9886C186.383 21.9886 187.011 21.8485 187.557 21.5682C188.102 21.2803 188.53 20.8939 188.841 20.4091C189.152 19.9242 189.307 19.375 189.307 18.7614V16.9091C189.155 17.0076 188.947 17.0985 188.682 17.1818C188.424 17.2576 188.133 17.3295 187.807 17.3977C187.481 17.4583 187.155 17.5152 186.83 17.5682C186.504 17.6136 186.208 17.6553 185.943 17.6932C185.375 17.7765 184.879 17.9091 184.455 18.0909C184.03 18.2727 183.701 18.5189 183.466 18.8295C183.231 19.1326 183.114 19.5114 183.114 19.9659C183.114 20.625 183.352 21.1288 183.83 21.4773C184.314 21.8182 184.928 21.9886 185.67 21.9886ZM202.71 14.9091V25H197.869V7.54545H202.483V10.625H202.688C203.074 9.60985 203.722 8.80682 204.631 8.21591C205.54 7.61742 206.642 7.31818 207.938 7.31818C209.15 7.31818 210.206 7.58333 211.108 8.11364C212.009 8.64394 212.71 9.40151 213.21 10.3864C213.71 11.3636 213.96 12.5303 213.96 13.8864V25H209.119V14.75C209.127 13.6818 208.854 12.8485 208.301 12.25C207.748 11.6439 206.987 11.3409 206.017 11.3409C205.366 11.3409 204.79 11.4811 204.29 11.7614C203.797 12.0417 203.411 12.4508 203.131 12.9886C202.858 13.5189 202.718 14.1591 202.71 14.9091ZM217.776 25V7.54545H222.616V25H217.776ZM220.207 5.29545C219.488 5.29545 218.87 5.05682 218.355 4.57954C217.848 4.0947 217.594 3.51515 217.594 2.84091C217.594 2.17424 217.848 1.60227 218.355 1.125C218.87 0.640151 219.488 0.397726 220.207 0.397726C220.927 0.397726 221.541 0.640151 222.048 1.125C222.563 1.60227 222.821 2.17424 222.821 2.84091C222.821 3.51515 222.563 4.0947 222.048 4.57954C221.541 5.05682 220.927 5.29545 220.207 5.29545ZM226.403 25V22.1136L234.949 11.5341V11.4091H226.699V7.54545H240.778V10.6932L232.756 21.0114V21.1364H241.074V25H226.403ZM252.23 25.3409C250.435 25.3409 248.889 24.9773 247.594 24.25C246.306 23.5152 245.313 22.4773 244.616 21.1364C243.92 19.7879 243.571 18.1932 243.571 16.3523C243.571 14.5568 243.92 12.9811 244.616 11.625C245.313 10.2689 246.295 9.21212 247.56 8.45454C248.832 7.69697 250.325 7.31818 252.037 7.31818C253.188 7.31818 254.26 7.50379 255.253 7.875C256.253 8.23864 257.124 8.78788 257.866 9.52273C258.616 10.2576 259.2 11.1818 259.616 12.2955C260.033 13.4015 260.241 14.697 260.241 16.1818V17.5114H245.503V14.5114H255.685C255.685 13.8144 255.533 13.197 255.23 12.6591C254.927 12.1212 254.507 11.7008 253.969 11.3977C253.438 11.0871 252.821 10.9318 252.116 10.9318C251.382 10.9318 250.73 11.1023 250.162 11.4432C249.601 11.7765 249.162 12.2273 248.844 12.7955C248.526 13.3561 248.363 13.9811 248.355 14.6705V17.5227C248.355 18.3864 248.514 19.1326 248.832 19.7614C249.158 20.3902 249.616 20.875 250.207 21.2159C250.798 21.5568 251.499 21.7273 252.31 21.7273C252.848 21.7273 253.34 21.6515 253.787 21.5C254.234 21.3485 254.616 21.1212 254.935 20.8182C255.253 20.5152 255.495 20.1439 255.662 19.7045L260.139 20C259.912 21.0758 259.446 22.0152 258.741 22.8182C258.045 23.6136 257.143 24.2348 256.037 24.6818C254.938 25.1212 253.67 25.3409 252.23 25.3409ZM263.401 25V7.54545H268.094V10.5909H268.276C268.594 9.50758 269.128 8.68939 269.878 8.13636C270.628 7.57576 271.491 7.29545 272.469 7.29545C272.711 7.29545 272.973 7.31061 273.253 7.34091C273.533 7.37121 273.779 7.41288 273.991 7.46591V11.7614C273.764 11.6932 273.45 11.6326 273.048 11.5795C272.647 11.5265 272.279 11.5 271.946 11.5C271.234 11.5 270.598 11.6553 270.037 11.9659C269.484 12.2689 269.045 12.6932 268.719 13.2386C268.401 13.7841 268.241 14.4129 268.241 15.125V25H263.401Z" fill="url(#paint0_linear_45_4)"/>
<defs>
<linearGradient id="paint0_linear_45_4" x1="136.5" y1="-6" x2="136.5" y2="33" gradientUnits="userSpaceOnUse">
<stop stop-color="#FFA8E1"/>
<stop offset="0.57" stop-color="#E237B2"/>
</linearGradient>
</defs>
</svg>
